 <svg
    xmlns="http://www.w3.org/2000/svg"
    xmlSpace="preserve"
    className="w-8 h-8"
    viewBox="0 0 485.02 485.02"
  >
    <path d="M3.643 56.809c-5.425 18.171 4.903 37.3 23.063 42.726a34.457 34.457 0 0 0 9.848 1.445c14.781 0 28.422-9.625 32.879-24.512l1.793-6.027c1.238 10.941 7.641 20.676 17.188 26.078 3.063 1.73 6.426 3.055 10.074 3.785 2.254.453 4.516.676 6.746.676 16.035 0 30.371-11.301 33.625-27.637l.855-4.293c.816 11.68 7.57 21.906 17.473 27.469 3.98 2.238 8.426 3.801 13.266 4.277 1.164.117 2.316.176 3.449.176 17.434 0 32.355-13.219 34.117-30.93l.246-2.547c.324 12.504 7.363 23.23 17.582 28.977 4.953 2.785 10.586 4.5 16.672 4.5s11.719-1.715 16.668-4.5c10.234-5.754 17.281-16.488 17.582-29.016l.254 2.586c1.762 17.711 16.688 30.93 34.117 30.93a34.43 34.43 0 0 0 3.445-.176c4.84-.484 9.273-2.039 13.25-4.277 9.902-5.547 16.66-15.734 17.492-27.387l.844 4.211c3.25 16.336 17.59 27.637 33.617 27.637 2.234 0 4.488-.223 6.75-.676 3.656-.73 7.023-2.055 10.086-3.785 9.543-5.402 15.945-15.137 17.168-26.078l1.793 6.027c4.461 14.887 18.105 24.512 32.887 24.512 3.246 0 6.563-.469 9.848-1.445 18.16-5.426 28.484-24.555 23.055-42.727L471.132 22.5C467.144 9.149 454.864 0 440.931 0H44.094a31.516 31.516 0 0 0-30.198 22.495L3.643 56.809zM448.494 395.935h-.008V126.731h-.008c-12.528 0-24.39-4.085-34.251-10.989-6.674 4.689-14.353 8.173-22.882 9.871a61.544 61.544 0 0 1-11.537 1.118c-12.671 0-24.468-4.173-34.299-11.076-8.314 5.854-17.853 9.719-28.023 10.726a58.856 58.856 0 0 1-6.34.341c-12.773 0-24.523-4.109-34.282-10.924-9.751 6.839-21.558 10.924-34.348 10.924-12.781 0-24.596-4.085-34.347-10.916-9.759 6.807-21.501 10.916-34.274 10.916-2.119 0-4.254-.11-5.952-.301-10.44-1.031-20.056-4.912-28.411-10.774-9.831 6.902-21.636 11.084-34.299 11.084-3.77 0-7.64-.372-11.79-1.167-8.435-1.682-16.059-5.133-22.676-9.79-9.87 6.878-21.709 10.957-34.221 10.957h-.008v269.205h-.015l-24.137 62.649a19.443 19.443 0 0 0 18.145 26.435H454.49c6.41 0 12.409-3.157 16.035-8.441a19.455 19.455 0 0 0 2.111-17.994l-24.142-62.65zM230.329 258.271V236.77c0-6.729 5.458-12.187 12.186-12.187 10.838 0 19.654-8.815 19.654-19.645 0-10.838-8.815-19.653-19.654-19.653-10.838 0-19.653 8.815-19.653 19.653 0 6.729-5.458 12.187-12.187 12.187-6.727 0-12.187-5.458-12.187-12.187 0-24.277 19.749-44.027 44.026-44.027 24.278 0 44.027 19.749 44.027 44.027 0 20.05-13.473 37.004-31.84 42.305v11.028c67.33 2.492 134.578 25.452 134.578 66.083 0 6.729-5.458 12.187-12.187 12.187-6.727 0-12.186-5.458-12.186-12.187 0-17.105-47.677-41.955-122.392-41.955s-122.391 24.85-122.391 41.955c0 6.729-5.46 12.187-12.187 12.187-6.729 0-12.187-5.458-12.187-12.187.002-40.631 67.25-63.591 134.58-66.083zm117.655 66.082a7.075 7.075 0 0 1-7.077 7.078h-196.79a7.075 7.075 0 0 1-7.077-7.078 7.073 7.073 0 0 1 7.077-7.077h196.791a7.074 7.074 0 0 1 7.076 7.077zM39.711 459.272l14.481-37.59h376.632l14.487 37.59h-405.6z" />
  </svg>